<svg width="484" height="108" viewBox="0 0 484 108" fill="none" xmlns="http://www.w3.org/2000/svg">
<g filter="url(#filter0_b_1_125)">
<rect width="484" height="108" rx="20" fill="url(#paint0_linear_1_125)" fill-opacity="0.16"/>
<rect x="0.5" y="0.5" width="483" height="107" rx="19.5" stroke="url(#paint1_linear_1_125)"/>
<g filter="url(#filter1_d_1_125)">
<g clip-path="url(#clip0_1_125)">
<rect x="28" y="28" width="52" height="52" rx="16" fill="white" fill-opacity="0.07" shape-rendering="crispEdges"/>
<path d="M61.0722 57.5682C61.2097 57.65 61.3795 57.7458 61.5718 57.8543C62.4142 58.3295 63.6876 59.0479 64.56 59.9018C65.1055 60.4359 65.624 61.1396 65.7182 62.0019C65.8184 62.9188 65.4185 63.7792 64.6159 64.5438C63.2315 65.8627 61.5701 66.9197 59.4212 66.9197H48.9996C46.8507 66.9197 45.1893 65.8627 43.8049 64.5438C43.0024 63.7792 42.6024 62.9188 42.7027 62.0019C42.7969 61.1396 43.3153 60.4359 43.8609 59.9018C44.7333 59.0479 46.0067 58.3295 46.8491 57.8543C47.0414 57.7459 47.2112 57.65 47.3486 57.5682C51.5489 55.0671 56.872 55.0671 61.0722 57.5682Z" fill="#4770FF"/>
<path opacity="0.4" d="M48.0078 47.7153C48.0078 44.2886 50.7857 41.5107 54.2124 41.5107C57.639 41.5107 60.4169 44.2886 60.4169 47.7153C60.4169 51.142 57.639 53.9198 54.2124 53.9198C50.7857 53.9198 48.0078 51.142 48.0078 47.7153Z" fill="#4770FF"/>
<g filter="url(#filter2_f_1_125)">
<circle cx="54.5" cy="57.5" r="6.5" fill="#4871FE"/>
</g>
</g>
</g>
<rect x="104" y="29" width="236" height="12" rx="6" fill="#CAD1E9"/>
<rect opacity="0.5" x="104" y="48" width="126" height="12" rx="6" fill="#CAD1E9"/>
<rect opacity="0.5" x="104" y="67" width="71" height="12" rx="6" fill="#CAD1E9"/>
</g>
<defs>
<filter id="filter0_b_1_125" x="-11.7" y="-11.7" width="507.4" height="131.4" filterUnits="userSpaceOnUse" color-interpolation-filters="sRGB">
<feFlood flood-opacity="0" result="BackgroundImageFix"/>
<feGaussianBlur in="BackgroundImageFix" stdDeviation="5.85"/>
<feComposite in2="SourceAlpha" operator="in" result="effect1_backgroundBlur_1_125"/>
<feBlend mode="normal" in="SourceGraphic" in2="effect1_backgroundBlur_1_125" result="shape"/>
</filter>
<filter id="filter1_d_1_125" x="27" y="27" width="54" height="54" filterUnits="userSpaceOnUse" color-interpolation-filters="sRGB">
<feFlood flood-opacity="0" result="BackgroundImageFix"/>
<feColorMatrix in="SourceAlpha" type="matrix" values="0 0 0 0 0 0 0 0 0 0 0 0 0 0 0 0 0 0 127 0" result="hardAlpha"/>
<feMorphology radius="1" operator="dilate" in="SourceAlpha" result="effect1_dropShadow_1_125"/>
<feOffset/>
<feComposite in2="hardAlpha" operator="out"/>
<feColorMatrix type="matrix" values="0 0 0 0 0.176471 0 0 0 0 0.180392 0 0 0 0 0.282353 0 0 0 1 0"/>
<feBlend mode="normal" in2="BackgroundImageFix" result="effect1_dropShadow_1_125"/>
<feBlend mode="normal" in="SourceGraphic" in2="effect1_dropShadow_1_125" result="shape"/>
</filter>
<filter id="filter2_f_1_125" x="30.4" y="33.4" width="48.2" height="48.2" filterUnits="userSpaceOnUse" color-interpolation-filters="sRGB">
<feFlood flood-opacity="0" result="BackgroundImageFix"/>
<feBlend mode="normal" in="SourceGraphic" in2="BackgroundImageFix" result="shape"/>
<feGaussianBlur stdDeviation="8.8" result="effect1_foregroundBlur_1_125"/>
</filter>
<linearGradient id="paint0_linear_1_125" x1="242" y1="-4.40948e-06" x2="259.096" y2="83.1297" gradientUnits="userSpaceOnUse">
<stop stop-color="#1B1C36"/>
<stop offset="1" stop-color="#70717A"/>
</linearGradient>
<linearGradient id="paint1_linear_1_125" x1="274" y1="72.973" x2="425.253" y2="-33.5579" gradientUnits="userSpaceOnUse">
<stop stop-color="#2C2D47"/>
<stop offset="1" stop-color="#444AE2" stop-opacity="0.05"/>
</linearGradient>
<clipPath id="clip0_1_125">
<rect x="28" y="28" width="52" height="52" rx="16" fill="white"/>
</clipPath>
</defs>
</svg>
