<svg width="489" height="254" viewBox="0 0 489 254" fill="none" xmlns="http://www.w3.org/2000/svg">
<g filter="url(#filter0_b_1_464)">
<rect width="489" height="254" rx="24" fill="url(#paint0_linear_1_464)" fill-opacity="0.16"/>
<rect x="0.5" y="0.5" width="488" height="253" rx="23.5" stroke="url(#paint1_linear_1_464)"/>
<rect x="93" y="24" width="260" height="18" rx="9" fill="#CAD1E9"/>
<rect x="93" y="54" width="279" height="11" rx="5.5" fill="#CAD1E9"/>
<rect opacity="0.4" x="93" y="77" width="347" height="11" rx="5.5" fill="#CAD1E9"/>
<rect opacity="0.4" x="93" y="100" width="376" height="11" rx="5.5" fill="#CAD1E9"/>
<rect x="93" y="185" width="90" height="43" rx="14" fill="#ED5959"/>
<rect x="93.5" y="185.5" width="89" height="42" rx="13.5" stroke="white" stroke-opacity="0.17"/>
<path d="M118.778 212V200.364H122.926C123.828 200.364 124.576 200.519 125.17 200.83C125.769 201.14 126.216 201.57 126.511 202.119C126.807 202.665 126.955 203.295 126.955 204.011C126.955 204.723 126.805 205.35 126.506 205.892C126.21 206.43 125.763 206.848 125.165 207.148C124.57 207.447 123.822 207.597 122.92 207.597H119.778V206.085H122.761C123.33 206.085 123.792 206.004 124.148 205.841C124.508 205.678 124.771 205.441 124.938 205.131C125.104 204.82 125.188 204.447 125.188 204.011C125.188 203.572 125.102 203.191 124.932 202.869C124.765 202.547 124.502 202.301 124.142 202.131C123.786 201.956 123.318 201.869 122.739 201.869H120.534V212H118.778ZM124.523 206.75L127.398 212H125.398L122.58 206.75H124.523ZM132.107 212.176C131.247 212.176 130.506 211.992 129.885 211.625C129.268 211.254 128.79 210.733 128.453 210.062C128.12 209.388 127.953 208.598 127.953 207.693C127.953 206.799 128.12 206.011 128.453 205.33C128.79 204.648 129.26 204.116 129.862 203.733C130.468 203.35 131.177 203.159 131.987 203.159C132.48 203.159 132.957 203.241 133.419 203.403C133.881 203.566 134.296 203.822 134.663 204.17C135.031 204.519 135.321 204.972 135.533 205.528C135.745 206.081 135.851 206.754 135.851 207.545V208.148H128.913V206.875H134.186C134.186 206.428 134.095 206.032 133.913 205.688C133.732 205.339 133.476 205.064 133.146 204.864C132.821 204.663 132.438 204.562 131.999 204.562C131.521 204.562 131.105 204.68 130.749 204.915C130.396 205.146 130.124 205.449 129.93 205.824C129.741 206.195 129.646 206.598 129.646 207.034V208.028C129.646 208.612 129.749 209.108 129.953 209.517C130.161 209.926 130.451 210.239 130.822 210.455C131.194 210.667 131.627 210.773 132.124 210.773C132.446 210.773 132.739 210.727 133.004 210.636C133.269 210.542 133.499 210.402 133.692 210.216C133.885 210.03 134.033 209.801 134.135 209.528L135.743 209.818C135.614 210.292 135.383 210.706 135.05 211.062C134.72 211.415 134.305 211.689 133.805 211.886C133.309 212.08 132.743 212.176 132.107 212.176ZM137.236 215.273V203.273H138.895V204.688H139.037C139.135 204.506 139.277 204.295 139.463 204.057C139.649 203.818 139.906 203.61 140.236 203.432C140.565 203.25 141.001 203.159 141.543 203.159C142.247 203.159 142.876 203.337 143.429 203.693C143.982 204.049 144.416 204.562 144.73 205.233C145.048 205.903 145.207 206.71 145.207 207.653C145.207 208.597 145.05 209.405 144.736 210.08C144.421 210.75 143.99 211.267 143.44 211.631C142.891 211.991 142.264 212.17 141.56 212.17C141.029 212.17 140.596 212.081 140.259 211.903C139.925 211.725 139.664 211.517 139.474 211.278C139.285 211.04 139.139 210.828 139.037 210.642H138.935V215.273H137.236ZM138.901 207.636C138.901 208.25 138.99 208.788 139.168 209.25C139.346 209.712 139.603 210.074 139.94 210.335C140.277 210.593 140.69 210.722 141.179 210.722C141.687 210.722 142.111 210.587 142.452 210.318C142.793 210.045 143.05 209.676 143.224 209.21C143.402 208.744 143.491 208.22 143.491 207.636C143.491 207.061 143.404 206.544 143.23 206.085C143.06 205.627 142.802 205.265 142.457 205C142.116 204.735 141.69 204.602 141.179 204.602C140.687 204.602 140.27 204.729 139.929 204.983C139.592 205.237 139.336 205.591 139.162 206.045C138.988 206.5 138.901 207.03 138.901 207.636ZM148.31 200.364V212H146.611V200.364H148.31ZM151.169 215.273C150.915 215.273 150.684 215.252 150.476 215.21C150.268 215.172 150.112 215.131 150.01 215.085L150.419 213.693C150.73 213.777 151.006 213.813 151.249 213.801C151.491 213.79 151.705 213.699 151.891 213.528C152.08 213.358 152.247 213.08 152.391 212.693L152.601 212.114L149.408 203.273H151.226L153.436 210.045H153.527L155.737 203.273H157.561L153.964 213.165C153.798 213.619 153.586 214.004 153.328 214.318C153.071 214.636 152.764 214.875 152.408 215.034C152.052 215.193 151.639 215.273 151.169 215.273Z" fill="white"/>
<g filter="url(#filter1_d_1_464)">
<g clip-path="url(#clip0_1_464)">
<rect x="24" y="24" width="52" height="52" rx="16" fill="white" fill-opacity="0.07" shape-rendering="crispEdges"/>
<path d="M57.0722 53.5682C57.2097 53.65 57.3795 53.7458 57.5718 53.8543C58.4142 54.3295 59.6876 55.0479 60.56 55.9018C61.1055 56.4359 61.624 57.1396 61.7182 58.0019C61.8184 58.9188 61.4185 59.7792 60.6159 60.5438C59.2315 61.8627 57.5701 62.9197 55.4212 62.9197H44.9996C42.8507 62.9197 41.1893 61.8627 39.8049 60.5438C39.0024 59.7792 38.6024 58.9188 38.7027 58.0019C38.7969 57.1396 39.3153 56.4359 39.8609 55.9018C40.7333 55.0479 42.0067 54.3295 42.8491 53.8543C43.0414 53.7459 43.2112 53.65 43.3486 53.5682C47.5489 51.0671 52.872 51.0671 57.0722 53.5682Z" fill="#4770FF"/>
<path opacity="0.4" d="M44.0078 43.7153C44.0078 40.2886 46.7857 37.5107 50.2124 37.5107C53.639 37.5107 56.4169 40.2886 56.4169 43.7153C56.4169 47.142 53.639 49.9198 50.2124 49.9198C46.7857 49.9198 44.0078 47.142 44.0078 43.7153Z" fill="#4770FF"/>
<g filter="url(#filter2_f_1_464)">
<circle cx="50.5" cy="53.5" r="6.5" fill="#4871FE"/>
</g>
</g>
</g>
<g filter="url(#filter3_d_1_464)">
<rect x="24" y="178" width="52" height="52" rx="16" fill="white" fill-opacity="0.07" shape-rendering="crispEdges"/>
<path opacity="0.4" d="M58.2913 199.791C58.7609 199.753 59.2364 199.853 59.6488 200.085C59.9453 200.251 60.1667 200.475 60.3267 200.658C60.415 200.759 60.5345 200.91 60.6213 201.021C61.1602 201.675 61.7112 202.348 62.0347 202.808C62.3688 203.282 62.6218 203.734 62.7617 204.246C62.9681 205.001 62.9681 205.793 62.7617 206.548C62.569 207.254 62.181 207.861 61.7937 208.368C61.5592 208.674 61.275 209.004 61.0247 209.294C60.8877 209.453 60.6926 209.683 60.5897 209.808C60.3047 210.155 60.0235 210.499 59.6488 210.709C59.2364 210.94 58.7609 211.041 58.2913 211.003C57.8685 210.968 57.2886 210.704 56.8596 210.507C56.4388 210.319 55.6451 209.965 55.3429 209.07C55.2328 208.745 55.2338 208.397 55.2345 208.073V202.721C55.2338 202.397 55.2328 202.049 55.3429 201.724C55.6451 200.829 56.4388 200.474 56.8596 200.286C57.2886 200.09 57.8685 199.825 58.2913 199.791Z" fill="#3ED8EC"/>
<path opacity="0.4" d="M42.133 199.791C41.6634 199.753 41.1879 199.853 40.7754 200.085C40.4789 200.251 40.2576 200.475 40.0976 200.658C40.0093 200.759 39.8899 200.91 39.803 201.021C39.2641 201.675 38.7131 202.348 38.3896 202.808C38.0555 203.282 37.8025 203.734 37.6626 204.246C37.4562 205.001 37.4562 205.793 37.6626 206.548C37.8553 207.254 38.2434 207.861 38.6306 208.368C38.865 208.674 39.1493 209.004 39.3997 209.294C39.5366 209.453 39.7317 209.683 39.8347 209.808C40.1195 210.155 40.4008 210.499 40.7754 210.709C41.1879 210.94 41.6634 211.041 42.133 211.003C42.5557 210.968 43.1358 210.704 43.5646 210.507C43.9856 210.319 44.7792 209.965 45.0815 209.07C45.1914 208.745 45.1906 208.397 45.1898 208.073V202.721C45.1906 202.397 45.1914 202.049 45.0815 201.724C44.7792 200.829 43.9856 200.474 43.5646 200.286C43.1357 200.09 42.5557 199.825 42.133 199.791Z" fill="#3ED8EC"/>
<path d="M57.3018 210.707V211.072C57.3018 212.275 55.9742 213.672 53.7564 213.672H51.3928C50.74 213.672 50.2109 214.201 50.2109 214.853C50.2109 215.506 50.74 216.035 51.3928 216.035H53.7564C56.7602 216.035 59.6655 214.045 59.6655 211.072V210.701C59.6598 210.704 59.6541 210.708 59.6485 210.711C59.2359 210.942 58.7604 211.043 58.2909 211.005C58.0018 210.981 57.6394 210.85 57.3018 210.707Z" fill="#3ED8EC"/>
<path d="M43.1554 200.103C43.494 197.236 46.3704 194.76 50.2129 194.76C54.0555 194.76 56.932 197.236 57.2704 200.103C57.6173 199.954 57.9943 199.815 58.2928 199.791C58.7602 199.753 59.2334 199.852 59.6445 200.081C59.2971 195.646 55.0459 192.396 50.2129 192.396C45.3798 192.396 41.1285 195.646 40.7812 200.082C41.1925 199.852 41.6659 199.753 42.1336 199.791C42.432 199.815 42.8088 199.954 43.1554 200.103Z" fill="#3ED8EC"/>
</g>
</g>
<defs>
<filter id="filter0_b_1_464" x="-91.7" y="-91.7" width="672.4" height="437.4" filterUnits="userSpaceOnUse" color-interpolation-filters="sRGB">
<feFlood flood-opacity="0" result="BackgroundImageFix"/>
<feGaussianBlur in="BackgroundImageFix" stdDeviation="45.85"/>
<feComposite in2="SourceAlpha" operator="in" result="effect1_backgroundBlur_1_464"/>
<feBlend mode="normal" in="SourceGraphic" in2="effect1_backgroundBlur_1_464" result="shape"/>
</filter>
<filter id="filter1_d_1_464" x="23" y="23" width="54" height="54" filterUnits="userSpaceOnUse" color-interpolation-filters="sRGB">
<feFlood flood-opacity="0" result="BackgroundImageFix"/>
<feColorMatrix in="SourceAlpha" type="matrix" values="0 0 0 0 0 0 0 0 0 0 0 0 0 0 0 0 0 0 127 0" result="hardAlpha"/>
<feMorphology radius="1" operator="dilate" in="SourceAlpha" result="effect1_dropShadow_1_464"/>
<feOffset/>
<feComposite in2="hardAlpha" operator="out"/>
<feColorMatrix type="matrix" values="0 0 0 0 0.176471 0 0 0 0 0.180392 0 0 0 0 0.282353 0 0 0 1 0"/>
<feBlend mode="normal" in2="BackgroundImageFix" result="effect1_dropShadow_1_464"/>
<feBlend mode="normal" in="SourceGraphic" in2="effect1_dropShadow_1_464" result="shape"/>
</filter>
<filter id="filter2_f_1_464" x="26.4" y="29.4" width="48.2" height="48.2" filterUnits="userSpaceOnUse" color-interpolation-filters="sRGB">
<feFlood flood-opacity="0" result="BackgroundImageFix"/>
<feBlend mode="normal" in="SourceGraphic" in2="BackgroundImageFix" result="shape"/>
<feGaussianBlur stdDeviation="8.8" result="effect1_foregroundBlur_1_464"/>
</filter>
<filter id="filter3_d_1_464" x="23" y="177" width="54" height="54" filterUnits="userSpaceOnUse" color-interpolation-filters="sRGB">
<feFlood flood-opacity="0" result="BackgroundImageFix"/>
<feColorMatrix in="SourceAlpha" type="matrix" values="0 0 0 0 0 0 0 0 0 0 0 0 0 0 0 0 0 0 127 0" result="hardAlpha"/>
<feMorphology radius="1" operator="dilate" in="SourceAlpha" result="effect1_dropShadow_1_464"/>
<feOffset/>
<feComposite in2="hardAlpha" operator="out"/>
<feColorMatrix type="matrix" values="0 0 0 0 0.176471 0 0 0 0 0.180392 0 0 0 0 0.282353 0 0 0 1 0"/>
<feBlend mode="normal" in2="BackgroundImageFix" result="effect1_dropShadow_1_464"/>
<feBlend mode="normal" in="SourceGraphic" in2="effect1_dropShadow_1_464" result="shape"/>
</filter>
<linearGradient id="paint0_linear_1_464" x1="397" y1="32.5831" x2="273.49" y2="354.605" gradientUnits="userSpaceOnUse">
<stop stop-color="#1B1C36"/>
<stop offset="1" stop-color="#00000B"/>
</linearGradient>
<linearGradient id="paint1_linear_1_464" x1="0" y1="254" x2="515.669" y2="78.2486" gradientUnits="userSpaceOnUse">
<stop offset="0.362307" stop-color="#2C2D47"/>
<stop offset="1" stop-color="white" stop-opacity="0.07"/>
</linearGradient>
<clipPath id="clip0_1_464">
<rect x="24" y="24" width="52" height="52" rx="16" fill="white"/>
</clipPath>
</defs>
</svg>
